<svg version="1.0"
  xmlns="http://www.w3.org/2000/svg" viewBox="0 0 223 172">
  <g fill="#fff">
    <path d="M202.7 158.4c-7.2-6.9-17.8-15.7-23.4-19.5-12-8.1-31.3-17.8-37.1-18.6-2.2-.3-4.3-1.1-4.6-1.8-.2-.7.7-4.1 2-7.4 3.7-9.1 4.9-17.2 3.4-22.6-1.4-4.9-.4-7.5 3-7.5 6.7 0 7.2 16.5.9 27.6-1.6 2.8-2.9 5.5-2.9 6s1.9 1.5 4.2 2.2c4.9 1.5 24.8 13 36.1 20.8 4.3 3 8 5.4 8.2 5.4.2 0-2.1-5.3-5.1-11.7-5.8-12.7-6.3-14.6-3.7-14.1 1 .2 3.9 4.5 6.8 10.1 7.1 13.6 12.2 20.4 21.1 28.3 8.5 7.7 10.7 11 9.3 13.7-2 3.5-5 1.6-18.2-10.9z"/>
    <path d="M96.5 138.9c-8.8-1.3-17-5.7-24.4-13.3-6.8-6.9-7.7-9.9-1.5-5 16.1 12.6 25.3 16 41.5 15.1 11.5-.7 20.1-3.4 26.5-8.2 4.8-3.7 7.4-4.4 7.4-2.2 0 3.7-10.7 9.7-22.6 12.7-8.1 2.1-16.7 2.4-26.9.9z"/>
    <path d="M97 120.7c0-3.6-2.7-19.4-4.6-26.5-3.8-14.9-2.9-19.7 3.1-15.8 1.9 1.3 2.5 2.5 2.5 5.3 0 5.5 1 3.4 1.8-3.8.7-6.3.8-6.4 3.7-6.4 2.7 0 3 .4 3.3 3.4l.3 3.4 2-3.2c1.3-2.2 2.6-3.1 4.4-3.1 4.2 0 4.9 3.1 3.5 16.2-.6 6.2-1.4 14.2-1.6 17.8-.7 8.3-1.1 9.7-2.6 8.2-.6-.6-1.3-6.6-1.5-14.4-.3-7.3-.6-13.4-.7-13.5-.1-.1-1.5 1.5-3.1 3.5-2.9 3.6-3 3.9-2.9 15.1 0 14.2-1.6 11.4-2.3-4.2-.6-11-1.4-12.6-4.1-7.6-1.2 2.3-1 15.8.4 23.2.3 1.6.1 2.7-.5 2.7s-1.1-.1-1.1-.3zm-12-7.2c-1.4-7.3-2.6-9-3.6-4.8-.9 3.9-4.6 10.3-5.8 10.3-4.5-.1-5.6-4.8-5.6-23.8 0-18.3.9-21.6 5.3-21 1.9.3 2.2.9 2.1 4.3-.1 2.2-.7 6.9-1.3 10.6-.7 3.6-1.1 9.9-.9 14l.3 7.4 1.9-8c1.1-4.4 2.2-11.3 2.5-15.2.5-5 1.2-7.8 2.4-9 1.7-1.7 1.9-1.7 3.7.5 1.7 2.1 1.9 3.8 1.5 21.4-.3 10.5-.6 19.3-.9 19.5-.2.2-.9-2.6-1.6-6.2zm34.4 4.2c-1.6-4.3.9-34.7 3.3-38.4 1.6-2.7 5.1-3 6-.7.3.9-.1 3.9-1 6.8-2 6.2-5 23.3-4.4 24.9.6 1.7 7.7-20.7 7.7-24.2 0-3.6 1.7-8.3 3.3-9.3 2-1.2 4.7 2.3 4.7 6.1 0 2-.9 7.9-2 13.1-1.1 5.2-2 12.5-2 16.3 0 3.7-.4 6.7-.9 6.7-.9 0-2.1-5.7-2.1-10.2 0-4-1.5-3.4-3 1.2-2.2 6.8-8.1 11.5-9.6 7.7z"/>
    <path d="M63.6 114.9c-.3-.8-.9-3-1.4-4.9-.5-1.9-3.9-7.8-7.6-13-4.7-6.7-6.3-9.7-5.5-10.4 1-1.1 2.7.4 6.5 5.8.7 1.1 1.6 1.7 1.9 1.4.3-.3-.8-7.2-2.4-15.4-1.6-8.2-3.3-17.4-3.6-20.4-1.1-8.3-1.8-9.4-8.2-13-3.2-1.8-8.8-5.3-12.5-7.8-3.8-2.5-7-4.3-7.4-4-.3.3 2.6 5.9 6.5 12.5 7 11.6 8.1 14.6 6.1 15.8-1.7 1-5.4-3.6-12.4-15.5-3.8-6.2-8.9-14.5-11.5-18.4-6.8-10-7.8-12.9-5.7-16.1 3-4.5 5.2-3.3 18.1 9.9 7 7.2 15.4 14.7 20.1 17.9C51.6 44.1 86 63 87.7 63c.3 0 2.5 1.2 4.9 2.8 6.9 4.3 5.6 7.9-3.1 8.2-2.7.1-5.6.1-6.2.1-2.2-.2-1.4-3.1 1-4 1.9-.7.8-1.5-8.3-6.1-5.8-2.9-11.8-6.2-13.4-7.3-3-2.1-4.7-1.2-4 2.2.2.9 1.1 8.6 1.9 17.1.9 8.5 2.5 20.6 3.6 26.9 1.4 7.8 1.7 11.7 1 12.4-.7.7-1.2.6-1.5-.4zm90-1.8c-.3-.5.1-4.2.9-8.3 3.4-16.6 6.6-50.8 4.8-50.8-.5 0-2.3 1-4 2.3-1.6 1.2-8.1 4.7-14.3 7.7-9.9 4.7-11 5.5-9.1 6.4 1.2.5 2 1.7 1.9 2.5-.3 1.3-1.5 1.5-6.3 1.3-6.8-.4-9.6-2.2-7.9-5 .6-.9 11.4-7.1 24.1-13.7 12.7-6.6 24.6-13.1 26.5-14.5 1.8-1.4 5.9-4.3 9.2-6.5 3.2-2.2 10.6-9.1 16.4-15.3 10.4-11.2 13.1-12.9 16-10 2.8 2.8 1 9-5.2 17.8-1.8 2.5-6.3 9.7-10 16-9 15.1-10.4 17-12.6 17-4.4 0-3.7-1.8 7-19 3.3-5.2 5.8-9.6 5.6-9.8-.2-.2-4.4 2.3-9.4 5.5s-11.1 7-13.5 8.4c-4.4 2.6-4.5 2.8-5.7 10-.7 4.1-2.5 14.1-4.1 22.3-2.5 12.7-3 17.4-1.6 15.5 5.1-6.9 7.1-8.9 8-8 .7.7.2 2.2-1.6 4.8-1.4 2.1-4.6 6.7-7.1 10.2-2.5 3.5-4.8 8.2-5.1 10.3-.7 3.7-1.8 4.8-2.9 2.9z"/>
    <path d="M70 49.1c0-2.1 11.6-11.3 18.4-14.7 12.7-6.2 28.2-5.9 44.6.9 7.6 3.1 16 10.1 16 13.2 0 2.6-2.8 1.7-5.5-1.9-1.4-1.8-5.2-4.7-8.4-6.4-19.4-10.4-47.1-7.3-60.5 6.7-3 3.1-4.6 3.9-4.6 2.2z"/>
  </g>
</svg>
